<svg width="1440" height="1080" viewBox="0 0 1440 1080" fill="none" xmlns="http://www.w3.org/2000/svg">
<path d="M441.469 0C441.469 0 577.781 57.2372 596.57 157.695C615.36 258.153 593.974 316.605 441.469 493.453C288.964 670.301 261.108 678.763 185 707C108.892 735.237 0 637 0 637V0H441.469Z" fill="#FFBA5F"/>
<path d="M627.859 1080C627.859 1080 658.003 922.221 780.383 852C902.763 781.779 1041.11 879 1131 879C1220.89 879 1234.97 729.748 1312.06 647.078C1389.16 564.408 1440 556 1440 556C1440 556 1440 466.211 1440 647.078C1440 827.945 1440 1080 1440 1080H627.859Z" fill="#182440"/>
</svg>
