<svg width="344" height="342" viewBox="0 0 344 342" fill="none" xmlns="http://www.w3.org/2000/svg">
<path d="M199.545 137.323C268.315 188.636 350.753 181.595 341.248 235.811C331.742 290.027 210.1 367.53 111.685 330.193C13.2706 292.855 -35.806 57.2814 36.5542 12.0477C108.914 -33.186 130.776 86.0094 199.545 137.323Z" stroke="#6A9360" stroke-width="4"/>
<path d="M193.874 144.297C248.485 184.984 313.951 179.401 306.403 222.389C298.854 265.377 202.256 326.829 124.103 297.224C45.9502 267.619 6.97762 80.8326 64.4401 44.9668C121.903 9.10103 139.263 103.611 193.874 144.297Z" stroke="#6A9360" stroke-width="3"/>
<path d="M187.069 152.667C224.69 180.601 269.788 176.768 264.588 206.282C259.388 235.796 192.843 277.987 139.004 257.661C85.1657 237.335 58.3179 109.094 97.9032 84.4697C137.488 59.8455 149.448 124.733 187.069 152.667Z" stroke="#6A9360" stroke-width="2"/>
<path d="M179.778 161.634C199.195 175.905 222.471 173.946 219.788 189.024C217.104 204.102 182.758 225.656 154.97 215.273C127.182 204.889 113.325 139.374 133.756 126.794C154.188 114.215 160.36 147.364 179.778 161.634Z" stroke="#6A9360"/>
</svg>
