<svg width="432" height="329" viewBox="0 0 432 329" fill="none" xmlns="http://www.w3.org/2000/svg">
<path d="M7.55465 25.2812C-19 69 56.5221 111.236 111.445 184.5C166.368 257.764 194.797 314.367 267.008 325C339.219 335.633 424.313 283.669 429.555 213.68C434.796 143.69 306.2 81.6034 224.211 45C142.222 8.39654 34.1093 -18.4375 7.55465 25.2812Z" stroke="#E26C56" stroke-width="4"/>
<path d="M55.1234 56.9933C34.632 90.7547 92.9102 123.371 135.293 179.949C177.675 236.526 199.613 280.237 255.336 288.448C311.059 296.66 376.723 256.531 380.768 202.482C384.813 148.434 285.579 100.488 222.311 72.2209C159.042 43.9542 75.6149 23.2318 55.1234 56.9933Z" stroke="#E26C56" stroke-width="3"/>
<path d="M118.455 99.1424C106.036 119.669 141.356 139.5 167.042 173.899C192.729 208.298 206.024 234.875 239.796 239.867C273.567 244.86 313.364 220.461 315.815 187.6C318.267 154.738 258.125 125.587 219.78 108.401C181.436 91.2147 130.874 78.6155 118.455 99.1424Z" stroke="#E26C56" stroke-width="2"/>
<path d="M163.274 129.249C156.568 140.323 175.641 151.021 189.511 169.578C203.382 188.136 210.561 202.473 228.798 205.166C247.035 207.859 268.525 194.697 269.849 176.969C271.172 159.241 238.696 143.515 217.99 134.244C197.284 124.972 169.98 118.175 163.274 129.249Z" stroke="#E26C56"/>
</svg>
