<?xml version="1.0" standalone="no"?>
<!DOCTYPE svg PUBLIC "-//W3C//DTD SVG 1.1//EN" "http://www.w3.org/Graphics/SVG/1.1/DTD/svg11.dtd" >
<svg xmlns="http://www.w3.org/2000/svg">
<metadata>Generated by IcoMoon</metadata>
<defs>
<font id="icomoon" horiz-adv-x="1024">
<font-face units-per-em="1024" ascent="960" descent="-64" />
<missing-glyph horiz-adv-x="1024" />
<glyph unicode="&#x20;" horiz-adv-x="512" d="" />
<glyph unicode="&#xe900;" glyph-name="home" d="M1024 369.556l-512 397.426-512-397.428v162.038l512 397.426 512-397.428zM896 384v-384h-256v256h-256v-256h-256v384l384 288z" />
<glyph unicode="&#xe901;" glyph-name="inr" horiz-adv-x="513" d="M513.143 682.286v-58.286c0-10.286-8-18.286-18.286-18.286h-96c-17.714-109.714-101.714-181.143-231.429-196.571 85.143-90.857 176-200.571 262.286-306.286 4.571-5.143 5.714-13.143 2.286-19.429-2.857-6.286-9.143-10.286-16.571-10.286h-111.429c-5.714 0-10.857 2.286-14.286 6.857-92 110.286-176.571 211.429-284.571 326.286-3.429 3.429-5.143 8-5.143 12.571v72.571c0 9.714 8 18.286 18.286 18.286h64c100.571 0 163.429 33.714 180 96h-244c-10.286 0-18.286 8-18.286 18.286v58.286c0 10.286 8 18.286 18.286 18.286h236c-21.714 42.857-73.143 64.571-153.143 64.571h-82.857c-10.286 0-18.286 8.571-18.286 18.286v76c0 10.286 8 18.286 18.286 18.286h475.429c10.286 0 18.286-8 18.286-18.286v-58.286c0-10.286-8-18.286-18.286-18.286h-133.143c18.286-23.429 30.286-50.857 36.571-82.286h97.714c10.286 0 18.286-8 18.286-18.286z" />
<glyph unicode="&#xe902;" glyph-name="visa" d="M744.32 592.085c-16.512 6.229-42.24 12.843-74.24 12.843-81.92 0-139.733-41.301-140.16-100.48-0.512-43.52 41.131-68.011 72.576-82.603 32.299-14.933 43.093-24.32 43.008-37.76-0.213-20.352-25.813-29.568-49.579-29.568-32.683 0-50.603 4.565-78.123 16l-10.197 4.736-11.563-68.181c19.883-8.32 55.723-15.445 92.8-16 87.083 0 144 41.003 144.683 104.064 0.683 34.688-21.76 61.013-69.163 82.688-28.757 14.080-46.677 23.509-46.677 37.803 0 12.629 15.317 26.112 47.317 26.112 27.52 0.427 46.763-5.504 62.080-11.648l7.68-3.456 11.563 65.877zM956.928 599.339h-64c-19.925 0-34.816-5.419-43.563-25.216l-123.093-278.784h87.083l17.408 45.653 106.24-0.085c2.603-10.667 10.24-45.568 10.24-45.568h76.757zM412.16 601.899h82.901l-51.84-304.171h-82.944l51.883 304.256zM201.429 434.261l8.619-42.24 81.109 207.317h87.851l-130.603-303.573h-87.637l-71.68 257.109c-1.493 4.395-3.328 7.381-7.68 10.112-24.235 12.672-51.328 22.997-81.408 30.165l1.067 6.4h133.589c18.091-0.683 32.683-6.4 37.675-25.771l29.099-139.648zM854.571 403.243l33.067 85.077c-0.427-0.853 6.827 17.579 11.008 29.013l5.675-26.24 19.157-87.765h-68.907z" />
<glyph unicode="&#xe903;" d="M653.142 153.829l10.998 0.395 10.861 1.186 10.652 1.886 10.508 2.673 10.367 3.367 10.158 4.065 9.88 4.753 9.736 5.45 9.462 6.046 9.179 6.638 8.966 7.234 8.616 7.928 8.407 8.423 8.057 8.917 7.776 9.511 7.428 10.007 7.004 10.504 6.728 11 6.375 11.395 5.954 11.79 5.534 12.284 5.114 12.683 4.764 12.982 4.276 13.375 3.783 13.773 3.363 13.971 2.871 14.365 2.384 14.567 1.89 14.961 1.331 15.061 0.842 15.358 0.281 15.557-0.281 15.458-0.842 15.258-1.331 14.963-1.89 14.862-2.384 14.467-2.871 14.266-3.363 13.974-3.783 13.672-4.276 13.275-4.764 12.982-5.114 12.583-5.534 12.286-5.954 11.79-6.375 11.395-6.728 10.899-7.004 10.502-7.428 9.91-7.776 9.511-8.057 8.919-8.407 8.421-8.616 7.83-8.966 7.231-9.179 6.738-9.462 6.044-9.736 5.351-9.88 4.755-10.158 4.061-10.367 3.371-10.508 2.675-10.652 1.881-10.861 1.191-10.998 0.395-11-0.395-10.858-1.191-10.648-1.881-10.51-2.675-10.367-3.371-10.088-4.061-9.949-4.755-9.669-5.351-9.458-6.044-9.177-6.738-8.899-7.231-8.686-7.83-8.337-8.421-8.059-8.919-7.707-9.511-7.356-9.91-7.076-10.502-6.726-10.899-6.304-11.395-5.956-11.79-5.534-12.286-5.116-12.583-4.694-12.982-4.202-13.275-3.852-13.672-3.365-13.974-2.802-14.266-2.382-14.467-1.89-14.862-1.333-14.963-0.84-15.258-0.281-15.458 0.281-15.557 0.84-15.358 1.333-15.061 1.89-14.961 2.382-14.567 2.802-14.365 3.365-13.971 3.852-13.773 4.202-13.375 4.694-12.982 5.116-12.683 5.534-12.284 5.956-11.79 6.304-11.395 6.726-11 7.076-10.504 7.356-10.007 7.707-9.511 8.059-8.917 8.337-8.423 8.686-7.928 8.899-7.234 9.177-6.638 9.458-6.046 9.669-5.45 9.949-4.753 10.088-4.065 10.367-3.367 10.51-2.673 10.648-1.886 10.858-1.186 11-0.395z" />
<glyph unicode="&#xe904;" d="M370.383 153.829l11 0.395 10.858 1.186 10.65 1.886 10.51 2.673 10.367 3.367 10.088 4.065 9.949 4.753 9.667 5.45 9.46 6.046 9.177 6.638 8.899 7.234 8.686 7.928 8.337 8.423 8.057 8.917 7.707 9.511 7.426 10.007 7.006 10.504 6.726 11 6.306 11.395 5.956 11.79 5.536 12.284 5.112 12.683 4.696 12.982 4.272 13.375 3.785 13.773 3.361 13.971 2.804 14.365 2.382 14.567 1.892 14.961 1.329 15.061 0.842 15.358 0.279 15.557-0.279 15.458-0.842 15.258-1.329 14.963-1.892 14.862-2.382 14.467-2.804 14.266-3.361 13.974-3.785 13.672-4.272 13.275-4.696 12.982-5.112 12.583-5.536 12.286-5.956 11.79-6.306 11.395-6.726 10.899-7.006 10.502-7.426 9.91-7.707 9.511-8.057 8.919-8.337 8.421-8.686 7.83-8.899 7.231-9.177 6.738-9.46 6.044-9.667 5.351-9.949 4.755-10.088 4.061-10.367 3.371-10.51 2.675-10.65 1.881-10.858 1.191-11 0.395-10.998-0.395-10.861-1.191-10.648-1.881-10.51-2.675-10.369-3.371-10.158-4.061-9.878-4.755-9.738-5.351-9.458-6.044-9.179-6.738-8.968-7.231-8.618-7.83-8.405-8.421-8.059-8.919-7.774-9.511-7.356-9.91-7.078-10.502-6.724-10.899-6.375-11.395-5.956-11.79-5.533-12.286-5.116-12.583-4.764-12.982-4.274-13.275-3.783-13.672-3.363-13.974-2.872-14.266-2.382-14.467-1.893-14.862-1.331-14.963-0.842-15.258-0.279-15.458 0.279-15.557 0.842-15.358 1.331-15.061 1.893-14.961 2.382-14.567 2.872-14.365 3.363-13.971 3.783-13.773 4.274-13.375 4.764-12.982 5.116-12.683 5.533-12.284 5.956-11.79 6.375-11.395 6.724-11 7.078-10.504 7.356-10.007 7.774-9.511 8.059-8.917 8.405-8.423 8.618-7.928 8.968-7.234 9.179-6.638 9.458-6.046 9.738-5.45 9.878-4.753 10.158-4.065 10.369-3.367 10.51-2.673 10.648-1.886 10.861-1.186 10.998-0.395z" />
<glyph unicode="&#xe905;" d="M485.491 642.013h108.102v16.845h-97.663l-10.439-16.845z" />
<glyph unicode="&#xe906;" d="M468.537 606.345h125.055v16.742h-117.49l-7.565-16.742z" />
<glyph unicode="&#xe907;" d="M455.856 570.079h137.736v16.843h-131.92l-5.816-16.843z" />
<glyph unicode="&#xe908;" d="M447.588 534.409h146.004v16.746h-142.359l-3.645-16.746z" />
<glyph unicode="&#xe909;" d="M442.194 498.639h151.398v16.845h-149.225l-2.173-16.845z" />
<glyph unicode="&#xe90a;" d="M441.074 429.38h152.519v16.843h-153.569l1.051-16.843z" />
<glyph unicode="&#xe90b;" d="M444.717 391.627h148.875v16.847h-151.046l2.171-16.847z" />
<glyph unicode="&#xe90c;" d="M451.932 361.013h141.66v16.843h-145.302l3.641-16.843z" />
<glyph unicode="&#xe90d;" d="M462.723 323.756h130.869v16.843h-136.614l5.745-16.843z" />
<glyph unicode="&#xe90e;" d="M477.925 286.005h115.667v16.843h-123.654l7.987-16.843z" />
<glyph unicode="&#xe90f;" d="M496.982 249.739h95.56v16.843h-105.998l10.439-16.843z" />
<glyph unicode="&#xe910;" d="M831.582 270.746l0.633 2.673 1.051 2.478 1.333 2.181 1.54 1.784 1.751 1.386 1.89 0.891 2.034 0.299 2.101-0.299 1.962-0.891 1.753-1.386 1.538-1.784 1.264-2.181 0.981-2.478 0.631-2.673h-2.171l-0.422 1.88-0.772 2.083-0.981 1.784-1.19 1.384-1.401 1.094-1.612 0.69-1.681 0.201-1.681-0.201-1.614-0.69-1.399-1.094-1.262-1.384-0.981-1.784-0.77-2.083-0.42-1.88h-2.105z" />
<glyph unicode="&#xe911;" d="M838.171 270.746v3.568h3.994l0.909-0.1 0.772-0.098 0.698-0.299 0.561-0.397 0.42-0.494 0.352-0.594 0.209-0.696 0.070-0.889h-1.821l-0.070 0.494-0.139 0.395-0.213 0.397-0.279 0.299-0.35 0.199-0.35 0.096-0.352 0.102h-2.591v-1.982h-1.821z" />
<glyph unicode="&#xe912;" d="M831.445 268.169l0.137 2.478v0.098h2.107l-0.072-0.496-0.141-2.081h-2.032z" />
<glyph unicode="&#xe913;" d="M838.171 268.169v2.576h1.821v-2.081h3.013l0.42 0.098 0.35 0.199 0.211 0.199 0.211 0.395 0.139 0.498v0.692h1.821l-0.070-0.893-0.139-0.793-0.211-0.592-0.211-0.299h-7.354z" />
<glyph unicode="&#xe914;" d="M850.080 268.169l-0.139 2.081-0.070 0.496h2.173v-0.098l0.209-2.478h-2.173z" />
<glyph unicode="&#xe915;" d="M831.445 268.169l-0.072-0.494 0.209-2.974 0.633-2.775 1.051-2.38 1.333-2.179 1.54-1.681 1.751-1.29 1.89-0.791 2.034-0.297 2.099 0.297 1.964 0.791 1.751 1.29 1.54 1.681 1.264 2.179 0.979 2.38 0.633 2.775 0.209 2.974v0.494h-2.173v-0.494l-0.139-2.576-0.489-2.38-0.772-2.081-0.981-1.784-1.19-1.487-1.403-1.090-1.61-0.692-1.681-0.199-1.681 0.199-1.614 0.692-1.399 1.090-1.262 1.487-0.981 1.784-0.77 2.081-0.492 2.38-0.139 2.576v0.494h-2.032z" />
<glyph unicode="&#xe916;" d="M838.171 268.169v-6.144h1.821v5.054h1.823l2.171-5.054h1.823l-2.593 5.054 0.631 0.098 0.629 0.1 0.492 0.295 0.422 0.395 0.139 0.201h-7.356z" />
<glyph unicode="&#xe917;" d="M606.974 481.3l-1.401 0.098-1.401 0.197-1.262 0.299-1.262 0.199-2.521 0.594-1.333 0.297-1.399 0.297-1.47 0.199-1.542 0.199-1.751 0.197-1.892 0.1h-2.101l-2.314-0.1-2.591-0.197-2.802-0.297-2.032-0.397-1.89-0.594-1.753-0.795-1.542-0.891-1.399-1.090-1.262-1.19-1.051-1.386-0.842-1.389-0.631-1.583-0.42-1.683-0.211-1.686v-1.786l0.283-1.88 0.489-1.882 0.77-1.884 0.979-1.882 2.032-2.576 2.384-2.081 2.802-1.784 3.013-1.487 3.152-1.487 3.293-1.485 3.363-1.681 3.224-1.985 3.013-2.38 2.871-2.871 2.523-3.664 2.101-4.364 1.612-5.351 1.051-6.339 0.352-7.528-0.352-8.919-0.77-6.64-1.26-5.945-1.614-5.351-2.032-4.753-2.384-4.159-2.591-3.572-2.871-3.070-3.082-2.675-3.224-2.183-3.363-1.782-3.432-1.485-3.434-1.090-3.43-0.793-3.363-0.496-3.226-0.299-3.152-0.096h-4.342l-3.924 0.096-3.572 0.098-3.293 0.1-3.013 0.199-2.662 0.199-2.521 0.299-2.245 0.393-2.101 0.395-1.962 0.498-1.821 0.496-1.821 0.692-3.365 1.386-1.679 0.893-1.753 0.893 4.344 31.111 0.981-0.297 1.194-0.496 1.47-0.496 1.61-0.596 1.89-0.494 2.103-0.692 2.243-0.598 2.382-0.592 2.521-0.496 2.662-0.494 2.732-0.397 2.871-0.395 2.875-0.201 2.941-0.1h2.941l3.015 0.199 2.802 0.694 2.312 1.090 1.751 1.585 1.401 1.784 1.051 2.081 0.772 2.181 0.629 2.179 0.422 2.179 0.209 2.279-0.070 1.985-0.35 1.882-0.559 1.583-0.774 1.587-0.979 1.386-1.19 1.288-1.333 1.188-1.47 1.090-1.612 1.090-1.749 1.092-3.643 1.982-1.962 1.087-1.962 1.094-2.034 1.184-1.96 1.192-1.962 1.29-1.962 1.483-1.89 1.587-1.823 1.683-1.681 1.882-1.612 2.179-1.47 2.281-1.329 2.576-1.192 2.773-0.981 3.072-0.842 3.269-0.559 3.666-0.35 3.965-0.072 4.36 0.209 4.657 0.213 2.871 0.279 2.775 0.281 2.675 0.42 2.578 0.422 2.476 0.489 2.478 0.631 2.277 0.631 2.279 0.77 2.081 0.772 2.081 0.909 1.882 0.981 1.882 1.053 1.784 1.12 1.686 1.192 1.585 1.329 1.487 1.401 1.386 1.47 1.29 1.612 1.186 1.681 1.19 1.753 0.991 1.89 0.991 1.962 0.793 2.101 0.793 2.243 0.692 2.312 0.596 2.382 0.496 2.521 0.397 2.662 0.295 2.802 0.201 2.873 0.197h6.726l6.375-0.197 2.802-0.201 2.454-0.197 2.241-0.199 2.032-0.297 1.753-0.199 1.61-0.297 1.401-0.299 1.333-0.197 1.118-0.299 0.983-0.195 0.911-0.199 0.84-0.201 0.772-0.098-5.046-32.102z" />
<glyph unicode="&#xe918;" d="M558.285 357.736h4.444l3.353 0.104 3.4 0.319 3.625 0.541 3.684 0.862 3.59 1.149 3.824 1.655 3.514 1.874 3.531 2.392 3.359 2.914 3.129 3.344 2.814 3.879 2.566 4.477 2.179 5.097 1.743 5.79 1.313 6.248 0.784 6.887 0.354 9.204-0.373 7.721-1.116 6.736-1.747 5.8-2.324 4.821-2.834 4.119-3.219 3.222-3.314 2.617-3.631 2.234-3.488 1.731-3.269 1.47-3.101 1.462-2.826 1.395-2.443 1.556-1.966 1.716-1.653 2.095-0.768 1.475-0.631 1.542-0.391 1.503-0.219 1.468v1.335l0.162 1.286 0.317 1.28 0.451 1.126 0.61 1.010 0.782 1.032 0.95 0.897 1.1 0.856 1.206 0.696 1.425 0.645 1.528 0.481 1.71 0.334 2.611 0.276 2.49 0.19 2.187 0.094h1.946l1.706-0.090 1.63-0.184 1.518-0.195 1.327-0.18 1.266-0.266 1.294-0.291 2.742-0.645 1.141-0.17 1.436-0.34 1.63-0.215 4.401-0.301 6.038 38.408-3.944 0.5-0.735 0.176-0.965 0.209-0.881 0.176-1.198 0.317-1.415 0.211-1.386 0.295-1.839 0.338-1.698 0.182-2.163 0.317-2.269 0.197-2.482 0.199-2.929 0.209-3.013 0.096-3.469 0.102-6.951-0.002-5.81-0.414-2.814-0.315-2.679-0.426-2.531-0.53-2.462-0.639-2.429-0.754-2.175-0.825-2.111-0.854-2.128-1.116-1.894-1.073-1.868-1.321-1.835-1.354-1.616-1.43-1.534-1.53-1.511-1.7-1.298-1.745-1.212-1.835-1.137-1.935-1.022-1.97-1.044-2.165-0.758-2.085-0.866-2.343-0.621-2.281-0.696-2.517-0.498-2.566-0.42-2.478-0.453-2.781-0.276-2.677-0.291-2.875-0.217-2.968-0.217-4.856 0.082-4.598 0.377-4.17 0.592-3.828 0.928-3.611 1.083-3.373 1.296-2.98 1.483-2.853 1.597-2.449 1.798-2.419 1.901-2.107 1.948-1.782 2.021-1.688 2.136-1.612 2.064-1.35 2.013-1.219 2.089-1.217 3.951-2.198 3.559-1.935 1.614-1.006 1.503-1.018 1.294-0.958 1.104-0.985 0.938-1.014 0.702-0.993 0.573-1.182 0.414-1.167 0.258-1.391 0.055-1.532-0.176-1.911-0.362-1.872-0.561-1.946-0.67-1.892-0.811-1.602-1.028-1.311-1.182-1.071-1.579-0.743-2.204-0.547-2.615-0.172h-2.779l-2.828 0.096-2.705 0.188-2.748 0.379-2.658 0.387-2.583 0.477-2.425 0.477-2.275 0.567-2.126 0.565-2.206 0.729-1.737 0.446-1.548 0.571-1.366 0.459-1.239 0.514-4.803 1.458-5.198-37.22 3.809-1.942 1.937-1.028 3.453-1.407 1.974-0.75 2.028-0.549 2.161-0.551 2.146-0.397 2.421-0.422 2.662-0.311 2.693-0.199 3.127-0.205 3.293-0.098 3.582-0.098 4.014-0.098zM529.588 394.332l1.581-0.584 1.946-0.508 2.185-0.721 2.296-0.604 2.542-0.633 2.556-0.5 2.787-0.516 2.759-0.397 3.090-0.426 2.992-0.201 3.052-0.102 3.158 0.002 3.303 0.225 3.4 0.842 3.045 1.436 2.32 2.101 1.772 2.257 1.294 2.558 0.905 2.562 0.705 2.464 0.44 2.341 0.244 2.65-0.086 2.435-0.44 2.374-0.709 2.001-0.971 1.993-1.255 1.78-1.552 1.679-1.567 1.374-1.589 1.161-1.716 1.157-1.917 1.192-3.633 1.97-1.946 1.079-1.931 1.077-1.982 1.155-1.884 1.143-1.823 1.198-1.808 1.37-1.769 1.483-1.649 1.524-1.475 1.653-1.46 1.974-1.329 2.058-1.204 2.333-1.083 2.521-0.903 2.83-0.776 3.021-0.52 3.402-0.33 3.742-0.068 4.143 0.203 4.51 0.205 2.781 0.274 2.718 0.27 2.583 0.401 2.462 0.414 2.435 0.457 2.314 1.192 4.305 0.721 1.948 0.719 1.935 0.819 1.698 0.92 1.761 0.963 1.634 1.018 1.534 1.051 1.395 1.174 1.311 1.26 1.247 1.29 1.13 1.475 1.087 1.522 1.077 1.561 0.883 1.702 0.891 1.776 0.719 1.972 0.741 2.073 0.641 2.161 0.557 2.23 0.463 2.367 0.375 2.523 0.279 2.73 0.195 2.761 0.19h6.564l3.305-0.098 2.949-0.096 2.74-0.195 2.425-0.195 2.118-0.188 2.046-0.299 1.638-0.184 1.456-0.268 1.556-0.33 1.151-0.166 1.139-0.303 0.422-0.078-4.063-25.848-0.805 0.188-1.143 0.172-2.439 0.573-1.37 0.307-1.634 0.344-3.088 0.399-1.946 0.219-2.064 0.102-2.243-0.004-2.423-0.109-2.685-0.207-3.090-0.328-2.208-0.444-2.255-0.709-2.079-0.942-1.878-1.085-1.823-1.419-1.45-1.386-1.319-1.741-1.069-1.765-0.813-2.042-0.52-2.089-0.262-2.083v-2.234l0.344-2.294 0.588-2.263 0.969-2.365 1.133-2.15 2.413-3.058 2.8-2.443 3.16-2.011 3.224-1.591 3.203-1.511 3.234-1.456 3.174-1.589 2.937-1.808 2.714-2.14 2.525-2.525 2.208-3.209 1.882-3.903 1.477-4.905 0.983-5.939 0.336-7.197-0.34-8.655-0.739-6.361-1.2-5.661-1.52-5.046-1.884-4.411-2.202-3.84-2.367-3.265-2.617-2.796-2.806-2.435-2.912-1.972-3.092-1.638-3.162-1.37-3.15-0.999-3.174-0.733-3.146-0.463-3.035-0.281-3-0.092h-4.252l-3.875 0.096-3.564 0.098-3.234 0.096-2.941 0.195-2.576 0.193-2.361 0.281-2.134 0.373-1.98 0.373-1.835 0.467-1.64 0.444-1.628 0.621-3.174 1.309-1.262 0.67 3.467 24.828z" />
<glyph unicode="&#xe919;" d="M630.024 547.586h28.164l-4.344-34.679h17.306l-3.924-31.607-17.725 0.496-9.318-78.971-0.139-1.686v-1.487l0.139-1.288 0.281-1.186 0.422-0.991 0.489-0.993 0.629-0.793 0.7-0.594 0.842-0.594 0.84-0.494 0.983-0.397 0.979-0.201 1.122-0.297 2.31-0.199h3.434l1.962 0.199 1.819 0.397 1.546 0.498 1.188 0.494 0.911 0.494 0.561 0.397 0.209 0.098-2.869-27.048-0.702-0.596-2.31-1.483-0.772-0.399-0.844-0.395-0.838-0.397-0.983-0.395-0.979-0.397-1.051-0.299-1.192-0.295-1.26-0.297-1.333-0.297-1.401-0.301-1.612-0.295-1.683-0.295h-7.563l-3.994 0.395-3.574 0.596-3.152 0.788-2.734 1.092-2.312 1.192-1.962 1.483-1.61 1.688-1.331 1.88-1.051 2.081-0.77 2.277-0.492 2.478-0.281 2.773-0.070 2.877 0.070 3.168 0.213 3.271 0.348 3.566 18.706 154.968z" />
<glyph unicode="&#xe91a;" d="M633.856 357.736h8.012l1.989 0.348 1.704 0.313 1.432 0.307 1.372 0.307 1.292 0.305 1.303 0.322 1.221 0.35 2.3 0.93 0.825 0.397 0.954 0.446 1.044 0.543 0.762 0.506 1.726 1.11 1.868 1.583 3.621 34.118-5.732-2.671-0.645-0.457-0.59-0.322-0.905-0.377-1.266-0.408-1.483-0.324-1.61-0.162h-3.129l-1.886 0.162-1.026 0.272-0.69 0.135-0.481 0.195-0.512 0.301-0.612 0.432-0.344 0.291-0.211 0.266-0.295 0.598-0.276 0.647-0.168 0.717-0.098 0.911v1.174l0.123 1.493 8.96 75.938 17.709-0.494 4.747 38.242h-17.302l4.344 34.679h-34.783l-19.063-157.925-0.358-3.674-0.219-3.408-0.070-3.324 0.080-3.125 0.319-3.082 0.549-2.687 0.913-2.701 1.266-2.503 1.608-2.275 1.962-2.052 2.396-1.815 2.843-1.462 2.945-1.161 3.621-0.905 3.791-0.623 4.155-0.403zM657.562 388.991l-2.13-20.083-1.542-0.991-0.58-0.299-0.788-0.369-0.762-0.36-1.714-0.694-0.825-0.236-1.118-0.274-1.225-0.291-1.298-0.289-1.341-0.287-1.552-0.285-1.389-0.244h-7.117l-3.723 0.369-3.336 0.557-2.812 0.702-2.382 0.952-1.921 0.989-1.528 1.155-1.262 1.319-1.051 1.489-0.838 1.655-0.627 1.855-0.42 2.116-0.252 2.492-0.066 2.677 0.068 3.021 0.205 3.148 0.34 3.475 18.352 152.048h21.547l-4.344-34.679h17.31l-3.101-24.971-17.744 0.496-9.681-82.057-0.162-1.958 0.012-1.663 0.18-1.667 0.391-1.657 0.604-1.419 0.649-1.303 1.047-1.319 1.167-0.989 1.075-0.745 1.055-0.606 1.483-0.598 1.18-0.242 1.307-0.348 2.875-0.246 3.6 0.012 2.312 0.233 1.87 0.408z" />
<glyph unicode="&#xe91b;" d="M458.799 427.299l-0.35-2.476-0.072-2.48 0.143-2.675 0.418-2.574 0.561-2.677 0.84-2.675 0.981-2.576 1.192-2.476 1.331-2.378 1.542-2.279 1.61-1.982 1.753-1.882 1.89-1.585 1.962-1.288 2.101-0.993 2.101-0.69 5.046-0.993 2.591-0.395 2.593-0.199 2.66-0.098h2.595l2.732 0.197 2.662 0.297 2.732 0.596 2.804 0.692 2.8 0.989 2.804 1.29 2.804 1.487 2.941 1.784 2.871 2.179 2.945 2.378-4.346-35.174-1.612-1.19-1.612-1.087-1.47-0.891-3.082-1.588-1.54-0.594-1.614-0.498-1.749-0.494-1.823-0.295-1.962-0.299-2.173-0.297-2.31-0.1-2.523-0.199h-2.802l-3.082-0.096h-5.814l-2.523 0.195-2.454 0.201-2.521 0.395-2.591 0.496-2.523 0.594-5.044 1.585-4.905 2.179-2.382 1.29-2.382 1.485-2.31 1.683-2.243 1.784-2.101 1.982-2.103 2.179-1.962 2.38-1.89 2.574-1.823 2.777-1.612 2.972-1.542 3.269-1.401 3.369-1.26 3.666-1.122 3.865-0.979 4.162-0.772 4.36-0.631 4.557-0.418 4.956-0.283 5.151v5.351l0.139 5.747 0.352 5.945 0.209 2.081 0.211 2.378 0.281 2.378 0.35 2.576 0.35 2.677 0.489 2.773 0.561 2.873 0.561 2.974 0.7 3.072 0.77 2.97 0.911 3.072 0.979 3.074 1.122 3.072 1.19 3.070 1.333 3.072 1.401 2.974 1.61 2.871 1.683 2.875 1.821 2.773 2.032 2.576 2.101 2.576 2.312 2.378 2.454 2.179 2.66 2.083 2.804 1.782 3.013 1.686 3.152 1.487 3.363 1.19 3.572 0.989 3.785 0.694 3.922 0.397 4.205 0.199h1.962l1.962-0.199 2.032-0.201 2.032-0.297 2.034-0.395 2.099-0.596 2.034-0.692 2.030-0.793 2.032-0.891 2.034-1.090 1.962-1.19 1.892-1.389 1.819-1.585 1.823-1.683 1.681-1.982 1.681-2.081 1.542-2.279 1.47-2.476 1.331-2.775 1.19-2.873 1.122-3.17 0.981-3.369 0.842-3.666 0.629-3.865 0.561-4.162 0.352-4.36 0.137-4.657v-4.952l-0.209-5.253-0.352-5.548-0.629-5.847-0.842-6.142-1.122-8.722h-72.79l4.344 27.548h43.647l0.211 3.764v3.469l-0.141 3.269-0.42 2.974-0.559 2.675-0.702 2.476-0.911 2.181-1.051 1.982-1.19 1.782-1.331 1.487-1.403 1.188-1.47 0.993-1.612 0.793-1.679 0.594-1.753 0.297-1.821 0.098h-1.962l-1.821-0.395-1.823-0.496-1.681-0.793-1.612-1.092-1.54-1.286-1.473-1.487-1.331-1.683-1.26-1.982-1.12-2.081-1.053-2.279-0.981-2.476-0.84-2.576-0.702-2.775-0.559-2.972-0.489-3.072-3.924-29.626z" />
<glyph unicode="&#xe91c;" d="M480.868 357.736h5.919l3.029 0.096h3.009l2.464 0.205 2.56 0.111 2.22 0.317 1.989 0.305 2.009 0.324 2.009 0.567 1.825 0.565 1.704 0.664 3.443 1.772 1.604 0.981 1.722 1.169 2.744 2.028 4.518 36.573-5.313 2.951-2.904-2.347-2.697-2.046-2.716-1.647-2.638-1.399-2.583-1.188-2.509-0.887-2.605-0.643-2.521-0.551-2.429-0.27-2.552-0.184h-2.415l-2.537 0.094-2.404 0.182-2.4 0.367-4.778 0.94-1.716 0.565-1.712 0.809-1.608 1.057-1.589 1.333-1.54 1.653-1.45 1.784-1.384 2.046-1.214 2.169-1.087 2.261-0.897 2.355-0.762 2.429-0.512 2.445-0.379 2.327-0.125 2.365 0.031 1.141h64.797l1.485 11.553 0.004 0.029 0.852 6.21 0.641 5.988 0.354 5.626 0.213 5.384-0.002 5.048-0.143 4.825-0.371 4.534-0.578 4.25-0.666 4.073-0.891 3.848-1.036 3.545-1.184 3.332-1.264 3.039-1.462 3.033-1.581 2.636-1.702 2.509-1.739 2.132-1.81 2.134-2.040 1.882-2.030 1.767-2.132 1.55-2.116 1.266-2.263 1.21-2.161 0.936-2.163 0.84-2.198 0.748-2.367 0.666-2.185 0.414-2.183 0.315-2.025 0.197-2.128 0.215h-2.279l-4.383-0.209-4.182-0.432-4.069-0.756-3.791-1.063-3.516-1.253-3.506-1.653-3.17-1.784-3.070-1.958-2.814-2.22-2.628-2.343-2.505-2.589-2.126-2.628-2.21-2.802-1.903-2.92-1.71-2.929-1.722-3.074-1.438-3.070-1.38-3.191-1.212-3.133-1.167-3.199-0.997-3.138-0.944-3.181-0.793-3.064-0.725-3.195-0.555-2.951-0.571-2.931-0.516-2.92-0.344-2.66-0.358-2.632-0.293-2.474-0.207-2.359-0.221-2.193-0.354-6.060-0.141-5.827 0.002-5.532 0.293-5.245 0.434-5.132 0.653-4.676 0.805-4.542 1.024-4.323 1.169-4.018 1.331-3.86 1.466-3.504 1.624-3.439 1.747-3.209 1.925-2.914 2.005-2.722 2.128-2.572 2.216-2.284 2.308-2.173 2.357-1.858 2.505-1.821 2.556-1.583 2.611-1.407 5.077-2.247 5.452-1.712 2.66-0.618 2.699-0.514 2.763-0.43 2.454-0.19 2.789-0.207zM455.133 423.524l-0.039-1.356 0.164-2.851 0.471-2.898 0.629-2.99 0.913-2.853 1.085-2.836 1.29-2.656 1.473-2.613 1.712-2.513 1.761-2.146 1.894-2.023 2.191-1.839 2.314-1.52 2.492-1.178 2.488-0.817 5.38-1.059 2.836-0.43 2.722-0.199 2.783-0.1 2.828 0.002 2.861 0.215 2.83 0.317 2.986 0.651 3.113 0.772 3.080 1.104 2.963 1.38 2.968 1.579 2.839 1.726-3.205-25.954-0.424-0.311-1.489-1.006-1.303-0.791-2.824-1.454-1.272-0.489-1.468-0.455-1.53-0.43-1.622-0.262-1.923-0.293-1.997-0.274-2.273-0.098-2.394-0.19h-2.779l-3.029-0.096h-5.636l-2.384 0.184-2.331 0.19-2.347 0.367-2.47 0.473-2.339 0.551-4.751 1.493-4.618 2.052-2.181 1.182-2.195 1.368-2.161 1.575-2.081 1.653-1.944 1.835-1.96 2.032-1.823 2.21-1.786 2.431-1.698 2.591-1.503 2.769-1.468 3.117-1.333 3.203-1.2 3.492-1.077 3.709-0.94 3.99-0.743 4.211-0.61 4.409-0.408 4.819-0.274 5.014v5.222l0.137 5.648 0.344 5.822 0.207 2.052 0.205 2.331 0.272 2.3 0.346 2.548 0.344 2.619 0.473 2.675 0.555 2.845 0.553 2.931 0.676 2.966 0.743 2.869 0.885 2.986 0.95 2.976 1.087 2.978 1.155 2.98 1.286 2.968 1.329 2.82 1.54 2.746 1.624 2.775 1.696 2.585 1.927 2.443 1.995 2.445 2.13 2.189 2.286 2.032 2.456 1.919 2.589 1.649 2.832 1.585 2.902 1.366 3.099 1.098 3.322 0.92 3.512 0.643 3.703 0.377 4.039 0.19h1.72l1.796-0.182 1.962-0.193 1.88-0.276 1.823-0.354 1.886-0.535 1.884-0.643 1.901-0.741 1.851-0.811 1.841-0.989 1.765-1.069 1.665-1.221 1.681-1.464 1.64-1.518 1.526-1.8 1.571-1.942 1.409-2.083 1.348-2.269 1.231-2.564 1.122-2.71 1.061-3.002 0.928-3.189 0.799-3.471 0.606-3.717 0.543-4.028 0.338-4.19 0.133-4.526v-4.839l-0.205-5.147-0.346-5.442-0.614-5.726-0.84-6.121-0.754-5.863h-58.247l2.779 20.994h36.649l0.395 7.041-0.006 3.611-0.158 3.588-0.465 3.185-0.614 2.898-0.762 2.664-1.104 2.638-1.141 2.124-1.413 2.114-1.636 1.827-1.71 1.45-1.804 1.219-1.987 0.977-2.128 0.752-2.214 0.377-2.185 0.117-2.314-0.004-2.331-0.506-2.097-0.575-2.171-1.024-1.958-1.325-1.907-1.591-1.589-1.626-1.55-1.96-1.479-2.327-1.208-2.261-1.122-2.447-1.051-2.666-0.903-2.789-0.743-2.972-0.571-3.064-0.459-2.888h-7.16l-5.378-34.101h8.155zM458.641 451.072l-2.779-20.994h-1.217l3.312 20.994h0.684zM466.153 457.626l0.289 1.81 0.532 2.828 0.649 2.568 0.774 2.374 0.909 2.3 0.973 2.105 1.016 1.886 1.106 1.741 1.114 1.409 1.235 1.245 1.294 1.081 1.266 0.856 1.192 0.563 1.462 0.397 1.395 0.303h1.522l1.546-0.084 1.288-0.219 1.235-0.434 1.237-0.608 1.135-0.768 1.094-0.926 1.028-1.147 0.969-1.45 0.901-1.704 0.778-1.86 0.616-2.179 0.514-2.456 0.383-2.707 0.131-3.039v-3.308l-0.033-0.58h-29.551z" />
<glyph unicode="&#xe91d;" d="M419.846 392.618l-3.994-31.605h-25.291l0.279 2.97 0.281 2.974 0.281 2.675 0.281 2.476 0.281 2.083 0.209 1.784 0.281 1.19 0.281 0.69-1.331-2.179-1.681-2.179-1.892-2.081-2.171-1.982-2.312-1.882-2.523-1.784-2.662-1.585-2.732-1.485-2.871-1.288-2.943-1.092-2.943-0.793-2.941-0.592-2.943-0.299-2.873-0.1-2.802 0.299-2.734 0.592-3.572 1.19-3.152 1.587-2.873 1.882-2.521 2.081-2.243 2.277-1.892 2.578-1.681 2.673-1.401 2.974-1.19 2.972-0.983 3.074-0.77 3.17-0.631 3.269-0.42 3.172-0.281 3.269-0.139 3.17-0.072 3.072 0.283 5.548 0.629 5.251 0.911 5.052 1.331 4.758 1.612 4.458 1.821 4.164 2.173 3.863 2.312 3.666 2.591 3.269 2.734 2.875 2.941 2.677 3.084 2.277 3.222 1.98 3.293 1.587 3.363 1.188 3.432 0.893h0.141l0.489 0.098 0.772 0.1 1.051 0.197 1.19 0.199 1.401 0.199 1.542 0.297 1.681 0.197 1.681 0.201 1.681 0.295 1.751 0.201 1.681 0.197 1.542 0.199 1.47 0.098 1.331 0.1h4.694l1.262-0.1h1.19l1.122-0.098h2.243l0.979-0.1h0.911l0.772-0.098h0.698l0.561-0.098h0.77l0.211 0.989 0.489 2.38 0.352 2.775v2.476l-0.141 1.784-0.211 1.683-0.35 1.585-0.489 1.487-0.561 1.386-0.7 1.288-0.7 1.19-0.84 1.188-0.911 0.991-0.911 0.793-1.051 0.793-1.051 0.694-1.12 0.496-1.192 0.397-1.192 0.297-1.19 0.199-2.873 0.096-6.164-0.197-6.445-0.596-3.224-0.395-3.224-0.496-3.152-0.496-3.013-0.692-2.871-0.596-2.593-0.692-2.451-0.795-2.173-0.791-1.823-0.793-1.47-0.793-1.051-0.893 7.217 33.69 2.101 1.386 2.243 1.288 2.241 1.092 2.382 0.891 2.454 0.692 2.521 0.596 2.662 0.494 2.732 0.397 2.804 0.199 2.871 0.197 2.943 0.1h9.529l6.865-0.199 2.871-0.397 3.015-0.592 3.15-1.092 3.154-1.286 3.154-1.686 3.154-2.081 2.941-2.38 2.804-2.773 2.591-3.17 2.312-3.469 1.962-3.863 1.54-4.262 1.12-4.657 0.633-5.052 0.070-5.351-0.561-5.845-10.439-74.414z" />
<glyph unicode="&#xe91e;" d="M357.796 355.25l3.322 0.117 3.26 0.338 3.148 0.649 3.23 0.879 3.144 1.18 3.099 1.397 2.841 1.554 2.882 1.72 2.697 1.919 2.415 1.974-0.254-2.687-0.616-6.554h31.779l4.354 34.449 10.455 74.533 0.575 6.023-0.074 5.712-0.678 5.415-1.206 5.014-1.671 4.62-2.142 4.217-2.595 3.893-2.714 3.297-3.041 3.011-3.318 2.683-3.416 2.234-3.308 1.753-3.478 1.417-3.367 1.161-3.42 0.674-3.052 0.416-7.135 0.207-9.64-0.002-3.058-0.106-5.923-0.414-2.857-0.426-2.818-0.524-2.658-0.631-2.714-0.77-2.671-1.012-2.437-1.202-2.417-1.397-3.215-2.13-7.496-35 5.325-3.185 0.788 0.67 1.047 0.565 1.604 0.696 2.021 0.737 2.314 0.75 2.421 0.647 2.851 0.59 2.9 0.668 3.029 0.477 3.172 0.487 3.125 0.383 6.298 0.582 5.96 0.193 2.55-0.088 0.85-0.141 0.94-0.236 0.926-0.307 0.727-0.322 0.737-0.485 0.877-0.662 0.686-0.6 0.645-0.7 0.641-0.907 0.604-1.022 0.584-1.075 0.451-1.114 0.406-1.227 0.281-1.274 0.182-1.458 0.125-1.579v-2.142l-0.309-2.445-0.090-0.432h-0.924l-0.979 0.1h-2.265l-1.266 0.111-1.061-0.012-1.391 0.111-4.94-0.010-1.331-0.111-1.642-0.109-1.524-0.203-1.653-0.193-1.95-0.223-1.589-0.287-3.508-0.414-1.46-0.291-1.397-0.197-1.26-0.211-0.958-0.18-0.903-0.117-0.17-0.043h-0.233l-4.11-1.069-3.529-1.26-3.604-1.737-3.602-2.216-3.211-2.386-3.242-2.949-2.931-3.095-2.689-3.414-2.494-3.957-2.249-4.008-1.974-4.51-1.688-4.688-1.407-5.059-0.93-5.247-0.651-5.476-0.287-5.788 0.082-3.142 0.147-3.308 0.295-3.418 0.449-3.363 0.668-3.422 0.827-3.396 1.063-3.295 1.27-3.15 1.491-3.152 1.913-3.041 2.040-2.763 2.525-2.566 2.791-2.304 3.181-2.083 3.531-1.778 3.967-1.321 3.078-0.668 3.207-0.342zM349.465 480.244l5.487 25.614 0.899 0.592 2.056 1.184 2.001 0.973 2.109 0.788 2.255 0.637 2.374 0.561 2.521 0.467 2.55 0.371 5.491 0.383 2.83 0.096h9.425l6.642-0.193 2.603-0.358 2.697-0.532 2.853-0.987 2.914-1.188 2.869-1.536 2.896-1.909 2.691-2.175 2.562-2.535 2.38-2.914 2.118-3.176 1.784-3.51 1.409-3.899 1.036-4.305 0.586-4.69 0.066-4.987-0.537-5.597-10.437-74.39-3.631-28.738h-18.803l0.221 2.341 0.279 2.644 0.274 2.429 0.283 2.103 0.186 1.597 0.18 0.762 0.186 0.459-5.835 2.937-1.237-2.025-1.493-1.933-1.7-1.872-1.989-1.817-2.154-1.753-2.327-1.645-2.497-1.489-2.566-1.393-2.658-1.194-2.699-0.999-2.695-0.727-2.683-0.539-2.675-0.272-2.531-0.088-2.398 0.256-2.388 0.518-3.178 1.059-2.775 1.395-2.566 1.681-2.251 1.858-1.958 1.989-1.681 2.292-1.513 2.404-1.274 2.707-1.112 2.773-0.909 2.849-0.725 2.982-0.598 3.099-0.397 3.002-0.268 3.125-0.135 3.068-0.068 2.916 0.27 5.315 0.604 5.042 0.866 4.807 1.257 4.491 1.534 4.243 1.712 3.914 2.052 3.65 2.173 3.447 2.39 3.015 2.55 2.681 2.732 2.484 2.836 2.095 2.959 1.823 2.98 1.434 3.064 1.083 2.892 0.752h0.045l0.698 0.139 0.846 0.111 1.016 0.197 1.116 0.184 1.524 0.217 1.423 0.279 1.563 0.182 1.868 0.223 1.581 0.283 1.653 0.188 1.729 0.203 1.442 0.186 1.397 0.092 1.21 0.092h4.442l1.391-0.111 1.049 0.010 1.264-0.111 2.075 0.012 0.981-0.1h0.87l0.77-0.098h0.618l0.561-0.098h3.713l0.762 3.586 0.547 2.648 0.367 2.98v2.941l-0.162 1.931-0.252 1.989-0.401 1.745-0.608 1.847-0.639 1.556-0.844 1.552-0.84 1.423-0.971 1.354-1.178 1.278-1.221 1.063-1.221 0.913-1.284 0.838-1.655 0.731-1.436 0.465-1.45 0.352-1.403 0.221-3.305 0.113-3.011-0.104-3.351-0.106-6.541-0.61-3.322-0.41-3.224-0.496-3.391-0.535-2.976-0.692-3.019-0.627-2.757-0.741-2.562-0.834-0.741-0.272z" />
<glyph unicode="&#xe91f;" d="M395.676 429.875l-0.070 0.795-0.422 0.592-0.7 0.494-0.911 0.301-1.19 0.195-1.262 0.1h-3.013l-1.61-0.199-1.683-0.297-1.61-0.297-1.614-0.395-1.54-0.397-1.47-0.397-1.262-0.494-1.122-0.496-0.629-0.199-0.842-0.395-1.051-0.496-1.12-0.694-1.192-0.694-1.331-0.891-1.331-1.092-1.331-1.087-1.331-1.389-1.26-1.487-1.192-1.583-1.051-1.784-0.981-1.882-0.7-2.083-0.559-2.279-0.352-2.378-0.139-4.856 0.492-3.762 0.84-2.974 1.26-2.181 1.542-1.487 1.612-0.989 1.751-0.496 1.681-0.1 3.082 0.1 2.734 0.395 2.591 0.694 2.312 0.891 2.103 0.991 1.89 1.19 1.681 1.386 1.473 1.487 1.329 1.487 1.12 1.686 0.983 1.585 0.84 1.683 0.702 1.683 0.559 1.585 0.42 1.585 0.35 1.487 0.35 2.179 0.35 2.281 0.352 2.376 0.35 2.476 0.279 2.38 0.281 2.179 0.281 2.083 0.281 1.882z" />
<glyph unicode="&#xe920;" d="M208.407 361.013h-27.394l23.049 186.573h47.641l4.692-111.071 32.44 111.071h49.461l-23.12-186.573h-27.392l17.304 139.708h-1.051l-40.776-139.708h-30.687l-0.279 5.845-0.631 15.555-0.911 22-1.049 25.264-1.053 25.467-0.911 22.489-0.629 16.251-0.283 6.838h-1.118l-17.306-139.708z" />
<glyph unicode="&#xe921;" d="M225.378 455.010l1.053-25.469 1.051-25.266 0.911-21.993 0.631-15.581 0.428-8.964h36.268l31.891 109.269-13.535-109.269h33.997l23.931 193.126h-55.626l-27.548-94.327-3.987 94.327h-53.678l-23.859-193.126h33.996l13.578 109.607 0.498-12.333z" />
<glyph unicode="&#xe922;" d="M666.106 361.013h28.512l9.738 80.554 0.422 3.17 0.492 3.072 0.559 3.072 0.7 2.873 0.772 2.871 0.979 2.677 1.19 2.576 1.333 2.476 1.612 2.181 1.823 1.98 2.169 1.784 2.382 1.587 2.804 1.286 3.152 0.991 3.502 0.594 3.924 0.397h0.35l0.422-0.098 0.561-0.1h0.559l0.492-0.098 0.42-0.1 0.279-0.098h0.141l0.070 0.594 0.279 1.686 0.352 2.576 0.559 3.271 0.705 3.664 0.768 3.965 0.909 3.963 1.053 3.766 0.77 2.773 0.911 2.677 0.911 2.675 0.979 2.476 0.842 2.083 0.7 1.683 0.489 1.090 0.141 0.397h-0.141l-0.348 0.197-0.492 0.098-1.403 0.397-0.84 0.098-0.77 0.199h-0.7l-3.082-0.297-2.804-0.496-2.593-0.793-2.382-0.891-2.241-1.19-2.032-1.288-1.962-1.585-1.751-1.683-1.751-1.882-1.612-2.083-1.47-2.179-1.542-2.38-1.47-2.476-1.403-2.675-1.47-2.775-1.473-2.873 3.293 25.465-28.512 0.496-18.776-152.39z" />
<glyph unicode="&#xe923;" d="M662.401 357.736h35.123l10.082 83.417 0.414 3.109 0.479 2.994 0.535 2.943 0.67 2.74 0.725 2.697 0.883 2.415 1.092 2.361 1.176 2.183 1.366 1.849 1.55 1.686 1.866 1.534 2.030 1.352 2.382 1.094 2.742 0.862 3.172 0.539 3.514 0.354 0.166-0.039 0.846-0.145h0.526l0.115-0.023 0.197-0.047 0.645-0.227h3.609l0.406 3.41 0.281 1.7 0.344 2.523 0.545 3.185 0.694 3.627 0.76 3.908 0.879 3.834 1.032 3.693 0.745 2.689 1.767 5.186 0.942 2.382 0.834 2.064 0.678 1.626 0.58 1.29 1.683 4.776h-3.918l-0.055 0.031-0.877 0.174-0.573 0.164-0.965 0.272-0.872 0.1-0.956 0.248h-1.434l-3.338-0.336-2.998-0.541-2.978-0.911-2.578-0.971-2.652-1.409-2.185-1.395-2.331-1.884-1.87-1.817-1.954-2.105-1.733-2.259-0.715-1.075 1.624 12.558-35.125 0.61-19.589-158.994zM717.308 494.166l1.395 2.349 1.489 2.3 1.395 2.064 1.454 1.88 1.589 1.706 1.585 1.524 1.704 1.378 1.765 1.118 1.944 1.032 2.087 0.78 2.306 0.707 2.48 0.438 2.824 0.268-0.702-1.739-1.049-2.648-1.878-5.528-0.764-2.771-1.094-3.914-0.932-4.071-0.766-3.965-0.717-3.738-0.578-3.377-0.207-1.528h-0.635l-4.307-0.436-3.723-0.639-3.561-1.12-3.226-1.481-2.732-1.821-2.474-2.034-2.097-2.277-1.853-2.511-1.538-2.857-1.3-2.824-1.067-2.953-0.78-2.949-0.745-3.062-0.567-3.144-0.502-3.156-0.426-3.209-9.39-77.67h-21.903l17.963 145.785 21.901-0.381-2.824-21.83 6.167-1.915 1.462 2.851 1.458 2.757 1.37 2.609z" />
<glyph unicode="&#xe924;" d="M789.479 514.988l3.154-0.098 3.084-0.299 3.013-0.395 2.939-0.596 2.804-0.791 2.732-0.991 2.593-1.090 2.591-1.288 2.454-1.487 2.31-1.585 2.312-1.686 2.103-1.882 2.101-2.079 1.962-2.181 1.821-2.279 1.751-2.478 1.683-2.574 1.54-2.775 1.401-2.775 1.331-2.972 1.262-3.072 2.101-6.539 0.842-3.467 0.77-3.469 0.631-3.666 0.559-3.764 0.422-3.867 0.279-3.863 0.143-4.063 0.068-4.162-0.068-4.162-0.213-5.054-0.42-4.854-0.489-4.657-0.633-4.559-0.698-4.358-0.911-4.162-0.981-4.063-1.053-3.865-1.26-3.664-1.262-3.568-1.47-3.371-1.47-3.172-1.612-3.070-1.753-2.873-1.821-2.673-1.892-2.576-1.962-2.38-2.032-2.277-2.169-2.079-2.173-1.886-2.312-1.782-2.382-1.587-2.382-1.485-2.523-1.288-2.523-1.19-2.66-0.991-2.662-0.793-2.662-0.692-2.804-0.496-2.802-0.397-2.871-0.199-2.873-0.098-2.873 0.098-2.871 0.199-2.734 0.397-2.73 0.594-2.662 0.692-2.662 0.793-2.521 0.993-2.454 1.186-2.454 1.29-2.31 1.487-2.243 1.585-2.173 1.782-2.099 1.884-1.964 2.081-1.96 2.179-1.821 2.38-1.683 2.476-1.681 2.677-1.47 2.773-1.473 2.974-1.262 3.070-1.26 3.271-1.051 3.367-0.981 3.469-0.842 3.668-0.77 3.863-0.629 3.961-0.492 4.063-0.35 4.264-0.211 4.356-0.068 4.561 0.068 4.657 0.211 4.753 0.35 4.559 0.492 4.461 0.629 4.26 0.7 4.162 0.842 4.061 0.911 3.865 1.051 3.766 1.12 3.666 1.26 3.467 1.403 3.269 1.47 3.273 1.542 2.97 1.681 2.976 1.751 2.673 1.823 2.677 1.96 2.476 2.032 2.279 2.103 2.181 2.171 1.98 2.312 1.784 2.382 1.782 2.451 1.489 2.454 1.389 2.593 1.186 2.66 1.092 2.734 0.891 2.802 0.795 2.873 0.494 2.941 0.496 3.013 0.199 3.013 0.098z" />
<glyph unicode="&#xe925;" d="M784.548 355.16l2.986 0.102 3.109 0.215 2.912 0.422 3.056 0.545 2.773 0.731 2.873 0.858 2.916 1.094 2.609 1.243 2.775 1.417 2.458 1.548 2.57 1.714 2.458 1.905 2.292 1.995 2.351 2.261 2.111 2.38 2.077 2.523 1.956 2.673 1.913 2.81 1.858 3.056 1.681 3.215 1.499 3.242 1.565 3.586 1.262 3.596 1.331 3.869 1.067 3.957 0.997 4.133 0.952 4.344 0.702 4.428 0.647 4.665 0.494 4.717 0.432 4.999 0.213 5.138 0.070 4.27-0.072 4.221-0.147 4.184-0.289 3.983-0.438 3.992-0.573 3.838-0.657 3.824-0.788 3.529-0.899 3.699-1.057 3.269-1.13 3.516-1.311 3.162-1.395 3.111-1.462 2.89-1.657 2.978-1.757 2.673-1.864 2.632-1.944 2.427-2.095 2.318-2.222 2.191-2.228 1.989-2.521 1.839-2.464 1.686-2.689 1.624-2.781 1.37-2.748 1.149-2.957 1.069-3.043 0.85-3.164 0.631-3.125 0.403-3.297 0.315-3.365 0.1-3.119-0.111-3.178-0.211-3.105-0.522-3.056-0.524-3.090-0.879-2.963-0.969-2.781-1.149-2.847-1.307-2.533-1.448-2.724-1.653-2.413-1.825-2.525-1.95-2.32-2.13-2.185-2.277-2.159-2.425-2.103-2.664-1.847-2.73-1.866-2.853-1.735-3.080-1.624-3.135-1.491-3.326-1.475-3.441-1.313-3.627-1.141-3.746-1.085-3.893-0.93-3.955-0.862-4.18-0.711-4.227-0.647-4.381-0.5-4.567-0.358-4.667-0.213-4.85-0.068-4.753 0.072-4.669 0.217-4.467 0.362-4.389 0.508-4.184 0.653-4.088 0.791-3.955 0.881-3.828 1.008-3.551 1.116-3.574 1.292-3.334 1.35-3.283 1.52-3.052 1.585-2.986 1.751-2.771 1.788-2.628 1.982-2.583 2.021-2.23 2.152-2.279 2.214-1.972 2.357-1.929 2.365-1.661 2.554-1.638 2.556-1.329 2.677-1.294 2.785-1.087 2.777-0.813 2.791-0.725 2.953-0.639 2.98-0.426 2.986-0.197 3.099-0.096zM781.73 361.806l-2.691 0.186-2.497 0.362-2.554 0.555-2.544 0.662-2.474 0.737-2.275 0.895-2.292 1.11-2.277 1.198-2.13 1.37-2.089 1.475-2.025 1.661-1.944 1.745-1.843 1.954-1.847 2.054-1.686 2.204-1.597 2.349-1.587 2.525-1.393 2.626-1.401 2.83-1.204 2.933-1.208 3.135-1.006 3.224-0.946 3.348-0.813 3.541-0.748 3.754-0.61 3.838-0.477 3.94-0.34 4.145-0.207 4.248-0.066 4.456 0.066 4.561 0.207 4.651 0.342 4.452 0.479 4.346 0.616 4.168 0.684 4.069 0.819 3.957 0.887 3.758 1.022 3.662 1.083 3.547 1.198 3.299 1.356 3.158 1.421 3.162 1.473 2.836 1.599 2.83 1.677 2.558 1.739 2.556 1.827 2.31 1.927 2.159 1.985 2.058 1.995 1.821 2.185 1.686 2.234 1.673 2.275 1.38 2.286 1.294 2.404 1.1 2.488 1.020 2.558 0.834 2.572 0.731 2.693 0.461 2.777 0.469 2.793 0.182 2.853 0.096 2.941-0.094 2.925-0.283 2.845-0.373 2.707-0.549 2.568-0.725 2.544-0.922 2.421-1.018 2.376-1.182 2.257-1.368 2.195-1.505 2.142-1.561 1.919-1.718 1.976-1.956 1.833-2.038 1.7-2.13 1.663-2.351 1.585-2.425 1.452-2.615 1.337-2.648 1.278-2.857 1.194-2.906 1.012-3.144 1.012-3.158 0.807-3.322 0.748-3.359 0.61-3.551 0.545-3.666 0.408-3.742 0.27-3.744 0.139-3.973 0.068-4.076-0.068-4.065-0.207-4.94-0.412-4.751-0.479-4.573-0.621-4.471-0.678-4.233-0.885-4.037-0.963-3.983-1.012-3.715-1.214-3.537-0.010-0.027-1.212-3.43-1.409-3.228-1.421-3.066-1.526-2.906-1.655-2.712-1.743-2.558-1.802-2.456-1.862-2.259-1.905-2.134-2.019-1.935-2.040-1.769-2.146-1.655-2.247-1.497-2.22-1.384-2.353-1.2-2.353-1.11-2.427-0.903-2.503-0.745-2.48-0.645-2.621-0.465-2.628-0.373-2.699-0.186-2.703-0.092-2.705 0.092z" />
<glyph unicode="&#xe926;" d="M831.373 368.64h8.268v-1.485h-3.224v-9.712h-1.821v9.712h-3.224v1.485z" />
<glyph unicode="&#xe927;" d="M831.32 354.169h8.374v9.71h3.224v8.038h-14.821v-8.038h3.224v-9.71z" />
<glyph unicode="&#xe928;" d="M840.694 368.64h2.521l2.941-8.618 2.873 8.618h2.523v-11.196h-1.823v8.62l-2.871-8.62h-1.473l-2.871 8.62v-8.62h-1.821v11.196z" />
<glyph unicode="&#xe929;" d="M837.417 354.169h17.412v17.748h-8.161l-0.549-1.645-0.561 1.645h-8.141v-17.748z" />
<glyph unicode="&#xe92a;" d="M767.13 442.163l-0.422-5.55-0.207-5.155v-4.655l0.207-4.36 0.422-3.963 0.631-3.467 0.77-3.172 0.981-2.873 1.192-2.476 1.331-2.079 1.47-1.784 1.612-1.389 1.751-1.092 1.962-0.791 2.032-0.395 2.173-0.199 2.382 0.098 2.314 0.397 2.171 0.692 2.099 1.092 1.962 1.386 1.892 1.784 1.751 2.081 1.683 2.476 1.47 2.773 1.401 3.17 1.331 3.568 1.122 3.865 1.051 4.262 0.909 4.657 0.702 5.052 0.629 5.45 0.352 4.26 0.209 4.063v3.965l-0.209 3.762-0.352 3.469-0.559 3.369-0.772 3.070-0.909 2.875-1.122 2.574-1.262 2.181-1.47 1.982-1.612 1.585-1.821 1.288-1.962 0.793-2.101 0.496h-2.314l-2.871-0.297-2.662-0.694-2.451-1.188-2.312-1.489-2.103-1.98-1.962-2.181-1.753-2.476-1.538-2.773-1.473-2.974-1.26-3.17-1.122-3.17-0.909-3.369-0.844-3.369-0.698-3.367-0.489-3.371-0.422-3.269z" />
<glyph unicode="&#xe92b;" d="M796.246 239.616l109.994 200.677-52.101 207.606-57.893-408.283z" />
<glyph unicode="&#xe92c;" d="M759.2 239.616l109.992 200.677-52.101 207.606-57.891-408.283z" />
<glyph unicode="&#xe92d;" d="M235.788 648.575l-47.403-334.623 168.284-2.337 46.223 336.959h42.664l-55.421-391.731c-2.124-14.959-10.205-27.111-18.043-27.111h-215.702c-13.081 0-20.832 20.257-17.295 45.187l52.859 373.656h43.834zM756.058 650.912h42.662l-59.257-421.179h-43.866l60.461 421.179zM450.304 475.429l213.322 2.337 14.23 88.926h-216.891l13.033 81.9 231.119 4.207c14.387 0.264 22.956-21.815 19.167-49.349l-21.776-157.751c-3.797-27.519-18.553-49.816-32.938-49.816h-190.822l-22.499-173.162h-41.507l35.564 252.709z" />
<glyph unicode="&#xe92e;" d="M483.856 407.155c-6.789-46.885-25.504-41.363-25.504-41.363l-25.549-0.023 10.086 92.891c0 0 16.171-0.205 26.853-0.205 13.074 0 17.82-25.698 14.113-51.3v0zM537.514 450.562c4.149 81.302-20.888 115.237-52.142 115.237-14.672 0-82.123 0-82.123 0l-48.474-437.26h52.183l14.672 134.81 41.576-0.629c0 0 64.385-6.742 74.308 187.843z" />
<glyph unicode="&#xe92f;" d="M239.405 446.224h47.6l-19.606-186.649c0 0-4.887-41.622 10.846-44.833 12.427-2.544 21.674 34.159 24.705 59.021 3.981 32.649 19.454 172.46 19.454 172.46h49.033l-37.315-317.686h-42.813l5.261 45.388c0 0-21.844-65.913-54.295-58.012-28.846 7.012-31.332 58.798-26.335 123.396 2.454 31.715 23.464 206.914 23.464 206.914z" />
<glyph unicode="&#xe930;" d="M581.386 193.257c-8.153-5.124-18.041-7.889-20.001 10.433-5.386 50.244 42.144 64.95 42.144 64.95 0.322-45.775-15.886-71.442-22.143-75.383zM653.281 285.215c6.271 52.842 14.197 102.887 7.815 130.621-9.769 42.451-27.429 46.178-53.262 46.178-28.541 0-63.781-13.421-75.26-107.35 17.857 0 47.516 0 47.516 0s4.327 35.379 22.166 33.151c15.786-1.97 14.924-28.858 9.105-43.713-10.203-26.046-38.382-11.604-69.589-38.402-27.267-23.409-36.809-112.148-30.886-147.562 5.741-34.335 16.433-38.715 30.855-42.224 23.165-5.632 40.923 26.331 49.193 45.091 0-20.83 0.219-32.467 0.219-32.467h50.002l-0.121 11.645c0 0-4.454 2.925-3.957 18.416 0.36 11.35 8.999 65.921 16.204 126.616z" />
<glyph unicode="&#xe931;" d="M172.208 408.154c-6.749-38.687-27.67-34.288-27.67-34.288l-24.358 0.281 8.895 81.922c0 0 21.792-0.203 32.476-0.203 11.44 0 15.013-22.739 10.657-47.712zM227.568 463.983c4.145 81.291-24.757 101.816-56.010 101.816-14.67 0-82.121 0-82.121 0l-48.476-437.26h52.183l16.293 148.462 29.272-0.592c0 0 12.079 1.739 12.318-26.341 0.255-29.95-8.969-84.947-8.372-121.528 6.937 0 53.608 0 53.608 0l-0.12 11.645c0 0-4.455 2.922-3.958 18.416 0.206 6.447 3.082 26.841 6.846 54.35 2.268 12.126 5.693 40.892 5.376 64.322-0.396 29.243-7.808 42.811-18.499 52.31 33.328 19.339 41.659 134.402 41.659 134.402z" />
<glyph unicode="&#xe932;" d="M675.926 446.224h48.476v-190.607l41.937 190.607h44.489l-89.696-385.364c0 0-8.325-32.326-18.657-49.426-8.485-14.062-18.915-13.431-22.104-13.994-17.719 0.379-39.088 0.498-39.088 0.498l10.308 91.859 16.681 0.072c0 0 7.633 1.925 10.586 11.246 2.81 8.88 4.243 17.76 4.243 30.783 0 19.526-7.174 314.327-7.174 314.327z" />
<glyph unicode="&#xe933;" d="M873.015 519.627l-55.97-481.853 104.763 240.929-48.794 240.925z" />
<glyph unicode="&#xe934;" d="M837.136 519.627l-55.968-481.853 104.763 240.929-48.796 240.925z" />
<glyph unicode="&#xe935;" d="M941.343 607.105c-10.637 0-19.294-21.424-19.294-47.755 0-26.325 8.657-47.749 19.294-47.749 10.639 0 19.294 21.424 19.294 47.749 0 26.331-8.655 47.755-19.294 47.755zM941.343 506.864c-11.694 0-21.207 23.546-21.207 52.486s9.513 52.49 21.207 52.49c11.694 0 21.207-23.55 21.207-52.49s-9.513-52.486-21.207-52.486z" />
<glyph unicode="&#xe936;" d="M931.054 539.752v32.827h-4.952v4.395h11.917v-4.395h-4.973v-32.827h-1.993z" />
<glyph unicode="&#xe937;" d="M941.046 539.752v37.222h2.998l3.557-26.354c0.33-2.449 0.569-4.291 0.723-5.509 0.168 1.356 0.436 3.344 0.799 5.968l3.6 25.895h2.675v-37.222h-1.917v31.156l-4.368-31.156h-1.794l-4.352 31.691v-31.691h-1.921z" />
<glyph unicode="&#xe938;" glyph-name="add" d="M810 384.667h-256v-256h-84v256h-256v84h256v256h84v-256h256v-84z" />
<glyph unicode="&#xe939;" glyph-name="content_copy" d="M810 42.667v598h-468v-598h468zM810 724.667q34 0 60-25t26-59v-598q0-34-26-60t-60-26h-468q-34 0-60 26t-26 60v598q0 34 26 59t60 25h468zM682 896.667v-86h-512v-598h-84v598q0 34 25 60t59 26h512z" />
<glyph unicode="&#xe93a;" glyph-name="close" d="M512 533.197l-362.035 362.035-72.397-72.397 362.035-362.035-362.035-362.035 72.397-72.397 362.035 362.035 362.035-362.035 72.397 72.397-362.035 362.035 362.035 362.035-72.397 72.397-362.035-362.035z" />
<glyph unicode="&#xea0c;" glyph-name="info" d="M448 656c0 26.4 21.6 48 48 48h32c26.4 0 48-21.6 48-48v-32c0-26.4-21.6-48-48-48h-32c-26.4 0-48 21.6-48 48v32zM640 192h-256v64h64v192h-64v64h192v-256h64zM512 960c-282.77 0-512-229.23-512-512s229.23-512 512-512 512 229.23 512 512-229.23 512-512 512zM512 32c-229.75 0-416 186.25-416 416s186.25 416 416 416 416-186.25 416-416-186.25-416-416-416z" />
<glyph unicode="&#xea13;" glyph-name="enter" d="M384 448h-320v128h320v128l192-192-192-192zM1024 960v-832l-384-192v192h-384v256h64v-192h320v576l256 128h-576v-256h-64v320z" />
<glyph unicode="&#xeabe;" glyph-name="appleinc" d="M791.498 415.908c-1.294 129.682 105.758 191.876 110.542 194.966-60.152 88.020-153.85 100.078-187.242 101.472-79.742 8.074-155.596-46.948-196.066-46.948-40.368 0-102.818 45.754-168.952 44.552-86.916-1.292-167.058-50.538-211.812-128.38-90.304-156.698-23.126-388.84 64.89-515.926 43.008-62.204 94.292-132.076 161.626-129.58 64.842 2.588 89.362 41.958 167.756 41.958s100.428-41.958 169.050-40.67c69.774 1.296 113.982 63.398 156.692 125.796 49.39 72.168 69.726 142.038 70.924 145.626-1.548 0.706-136.060 52.236-137.408 207.134zM662.562 796.478c35.738 43.358 59.86 103.512 53.28 163.522-51.478-2.096-113.878-34.29-150.81-77.55-33.142-38.376-62.148-99.626-54.374-158.436 57.466-4.484 116.128 29.204 151.904 72.464z" />
<glyph unicode="&#xeac0;" glyph-name="android" d="M896 576c-35.2 0-64-28.8-64-64v-256c0-35.2 28.8-64 64-64s64 28.8 64 64v256c0 35.2-28.8 64-64 64zM128 576c-35.2 0-64-28.8-64-64v-256c0-35.2 28.8-64 64-64s64 28.8 64 64v256c0 35.2-28.802 64-64 64zM224 224c0-53.020 42.98-96 96-96v0-128c0-35.2 28.8-64 64-64s64 28.8 64 64v128h128v-128c0-35.2 28.8-64 64-64s64 28.8 64 64v128c53.020 0 96 42.98 96 96v352h-576v-352zM798.216 639.998c-9.716 87.884-59.004 163.792-129.62 209.646l32.024 64.046c7.904 15.806 1.496 35.028-14.31 42.932s-35.030 1.496-42.932-14.312l-32.142-64.286-8.35 3.316c-28.568 9.502-59.122 14.66-90.886 14.66-31.762 0-62.316-5.158-90.888-14.656l-8.348-3.316-32.142 64.282c-7.904 15.808-27.128 22.212-42.932 14.312-15.808-7.904-22.214-27.126-14.312-42.932l32.022-64.046c-70.616-45.852-119.904-121.762-129.622-209.644v-32h574.222v31.998h-1.784zM416 704c-17.674 0-32 14.328-32 32 0 17.648 14.288 31.958 31.93 31.996 0.032 0 0.062-0.002 0.094-0.002 0.018 0 0.036 0.002 0.052 0.002 17.638-0.042 31.924-14.35 31.924-31.996 0-17.672-14.326-32-32-32zM608 704c-17.674 0-32 14.328-32 32 0 17.646 14.286 31.954 31.924 31.996 0.016 0 0.034-0.002 0.050-0.002 0.032 0 0.064 0.002 0.096 0.002 17.64-0.038 31.93-14.348 31.93-31.996 0-17.672-14.326-32-32-32z" />
<glyph unicode="&#xf00c;" glyph-name="check" d="M954.857 627.428c0-14.286-5.714-28.571-16-38.857l-491.429-491.429c-10.286-10.286-24.571-16-38.857-16s-28.571 5.714-38.857 16l-284.571 284.571c-10.286 10.286-16 24.571-16 38.857s5.714 28.571 16 38.857l77.714 77.714c10.286 10.286 24.571 16 38.857 16s28.571-5.714 38.857-16l168-168.571 374.857 375.429c10.286 10.286 24.571 16 38.857 16s28.571-5.714 38.857-16l77.714-77.714c10.286-10.286 16-24.571 16-38.857z" />
<glyph unicode="&#xf021;" glyph-name="refresh" horiz-adv-x="878" d="M863.429 347.428c0-1.143 0-2.857-0.571-4-48.571-202.286-215.429-343.429-426.286-343.429-111.429 0-219.429 44-300.571 121.143l-73.714-73.714c-6.857-6.857-16-10.857-25.714-10.857-20 0-36.571 16.571-36.571 36.571v256c0 20 16.571 36.571 36.571 36.571h256c20 0 36.571-16.571 36.571-36.571 0-9.714-4-18.857-10.857-25.714l-78.286-78.286c53.714-50.286 125.143-78.857 198.857-78.857 101.714 0 196 52.571 249.143 139.429 13.714 22.286 20.571 44 30.286 66.857 2.857 8 8.571 13.143 17.143 13.143h109.714c10.286 0 18.286-8.571 18.286-18.286zM877.714 804.571v-256c0-20-16.571-36.571-36.571-36.571h-256c-20 0-36.571 16.571-36.571 36.571 0 9.714 4 18.857 10.857 25.714l78.857 78.857c-54.286 50.286-125.714 78.286-199.429 78.286-101.714 0-196-52.571-249.143-139.429-13.714-22.286-20.571-44-30.286-66.857-2.857-8-8.571-13.143-17.143-13.143h-113.714c-10.286 0-18.286 8.571-18.286 18.286v4c49.143 202.857 217.714 343.429 428.571 343.429 112 0 221.143-44.571 302.286-121.143l74.286 73.714c6.857 6.857 16 10.857 25.714 10.857 20 0 36.571-16.571 36.571-36.571z" />
<glyph unicode="&#xf041;" glyph-name="map-marker" horiz-adv-x="585" d="M438.857 585.143c0 80.571-65.714 146.286-146.286 146.286s-146.286-65.714-146.286-146.286 65.714-146.286 146.286-146.286 146.286 65.714 146.286 146.286zM585.143 585.143c0-34.857-4-70.857-18.857-102.286l-208-442.286c-12-25.143-38.286-40.571-65.714-40.571s-53.714 15.429-65.143 40.571l-208.571 442.286c-14.857 31.429-18.857 67.429-18.857 102.286 0 161.714 130.857 292.571 292.571 292.571s292.571-130.857 292.571-292.571z" />
<glyph unicode="&#xf08c;" glyph-name="linkedin-square" horiz-adv-x="878" d="M135.429 142.857h132v396.571h-132v-396.571zM276 661.714c-0.571 38.857-28.571 68.571-73.714 68.571s-74.857-29.714-74.857-68.571c0-37.714 28.571-68.571 73.143-68.571h0.571c46.286 0 74.857 30.857 74.857 68.571zM610.286 142.857h132v227.429c0 121.714-65.143 178.286-152 178.286-70.857 0-102.286-39.429-119.429-66.857h1.143v57.714h-132s1.714-37.143 0-396.571v0h132v221.714c0 11.429 0.571 23.429 4 32 9.714 23.429 31.429 48 68 48 47.429 0 66.286-36 66.286-89.714v-212zM877.714 713.143v-548.571c0-90.857-73.714-164.571-164.571-164.571h-548.571c-90.857 0-164.571 73.714-164.571 164.571v548.571c0 90.857 73.714 164.571 164.571 164.571h548.571c90.857 0 164.571-73.714 164.571-164.571z" />
<glyph unicode="&#xf092;" glyph-name="github-square" horiz-adv-x="878" d="M296.571 265.143v0c1.143 1.714 0.571 5.143-1.714 7.429-2.857 2.286-6.286 2.857-8 1.143-1.143-1.714-0.571-5.143 1.714-7.429 2.857-2.286 6.286-2.857 8-1.143zM280.571 288.571c-1.714 2.286-4.571 3.429-6.857 2.286-1.714-1.143-1.714-4.571 0-6.857 2.286-2.857 5.143-4 6.857-2.857v0c1.714 1.143 1.714 4.571 0 7.429zM257.143 311.428v0c0.571 1.143-0.571 3.429-2.857 4.571-1.714 0.571-4 0.571-4.571-1.143-1.143-1.714 0-3.429 2.286-4.571 2.286-0.571 4.571-0.571 5.143 1.143zM269.143 298.286v0c1.143 1.143 1.143 4-1.143 5.714-1.714 2.286-4.571 2.857-5.714 1.714-1.714-1.714-1.143-4 0.571-6.286 1.714-1.714 4.571-2.857 6.286-1.143zM318.286 255.428v0c0.571 2.286-1.714 5.143-5.143 6.286s-6.286 0-7.429-2.286c-0.571-2.286 1.714-5.143 5.143-6.286s6.286 0 7.429 2.286zM342.286 253.714v0c0 2.286-2.857 4.571-6.857 4.571-3.429 0-5.714-2.286-5.714-4.571s2.857-4.571 6.286-4.571 6.286 2.286 6.286 4.571zM364.571 257.714v0c-0.571 2.286-4 3.429-7.429 2.857s-5.714-2.857-5.143-5.143 3.429-4 6.857-3.429 5.714 3.429 5.714 5.714zM731.429 438.857c0 161.714-130.857 292.571-292.571 292.571s-292.571-130.857-292.571-292.571c0-129.143 84-238.857 200-277.714 14.857-2.857 20 6.286 20 14.286 0 6.857 0 29.714-0.571 54.286 0 0-81.143-17.714-98.286 34.857 0 0-13.143 33.714-32.571 42.286 0 0-26.286 18.286 2.286 18.286 0 0 28.571-2.286 44.571-30.286 25.714-45.143 68.571-32 85.143-24.571 2.857 18.857 10.286 32 18.857 39.429-65.143 7.429-133.714 32.571-133.714 144.571 0 32 11.429 57.714 30.286 78.286-2.857 7.429-13.143 37.143 2.857 77.714 24.571 7.429 80.571-30.286 80.571-30.286 23.429 6.857 48 9.714 73.143 9.714s49.714-2.857 73.143-9.714c0 0 56 37.714 80.571 30.286 16-40.571 5.714-70.286 2.857-77.714 18.857-20.571 30.286-46.286 30.286-78.286 0-112.571-68.571-137.143-133.714-144.571 10.286-9.143 20-26.857 20-54.286 0-38.857-0.571-70.286-0.571-80 0-8 5.143-17.143 20-14.286 116 38.857 200 148.571 200 277.714zM877.714 713.143v-548.571c0-90.857-73.714-164.571-164.571-164.571h-548.571c-90.857 0-164.571 73.714-164.571 164.571v548.571c0 90.857 73.714 164.571 164.571 164.571h548.571c90.857 0 164.571-73.714 164.571-164.571z" />
<glyph unicode="&#xf099;" glyph-name="twitter" horiz-adv-x="951" d="M925.714 717.714c-25.143-36.571-56.571-69.143-92.571-95.429 0.571-8 0.571-16 0.571-24 0-244-185.714-525.143-525.143-525.143-104.571 0-201.714 30.286-283.429 82.857 14.857-1.714 29.143-2.286 44.571-2.286 86.286 0 165.714 29.143 229.143 78.857-81.143 1.714-149.143 54.857-172.571 128 11.429-1.714 22.857-2.857 34.857-2.857 16.571 0 33.143 2.286 48.571 6.286-84.571 17.143-148 91.429-148 181.143v2.286c24.571-13.714 53.143-22.286 83.429-23.429-49.714 33.143-82.286 89.714-82.286 153.714 0 34.286 9.143 65.714 25.143 93.143 90.857-112 227.429-185.143 380.571-193.143-2.857 13.714-4.571 28-4.571 42.286 0 101.714 82.286 184.571 184.571 184.571 53.143 0 101.143-22.286 134.857-58.286 41.714 8 81.714 23.429 117.143 44.571-13.714-42.857-42.857-78.857-81.143-101.714 37.143 4 73.143 14.286 106.286 28.571z" />
<glyph unicode="&#xf09a;" glyph-name="facebook, facebook-f" horiz-adv-x="602" d="M548 944v-150.857h-89.714c-70.286 0-83.429-33.714-83.429-82.286v-108h167.429l-22.286-169.143h-145.143v-433.714h-174.857v433.714h-145.714v169.143h145.714v124.571c0 144.571 88.571 223.429 217.714 223.429 61.714 0 114.857-4.571 130.286-6.857z" />
<glyph unicode="&#xf0d5;" glyph-name="google-plus" horiz-adv-x="1317" d="M821.143 429.143c0-239.429-160.571-409.143-402.286-409.143-231.429 0-418.857 187.429-418.857 418.857s187.429 418.857 418.857 418.857c113.143 0 207.429-41.143 280.571-109.714l-113.714-109.143c-30.857 29.714-85.143 64.571-166.857 64.571-142.857 0-259.429-118.286-259.429-264.571s116.571-264.571 259.429-264.571c165.714 0 228 119.429 237.714 180.571h-237.714v144h395.429c4-21.143 6.857-42.286 6.857-69.714zM1316.571 498.857v-120h-119.429v-119.429h-120v119.429h-119.429v120h119.429v119.429h120v-119.429h119.429z" />
<glyph unicode="&#xf0e0;" glyph-name="envelope" d="M1024 545.143v-453.714c0-50.286-41.143-91.429-91.429-91.429h-841.143c-50.286 0-91.429 41.143-91.429 91.429v453.714c17.143-18.857 36.571-35.429 57.714-49.714 94.857-64.571 190.857-129.143 284-197.143 48-35.429 107.429-78.857 169.714-78.857h1.143c62.286 0 121.714 43.429 169.714 78.857 93.143 67.429 189.143 132.571 284.571 197.143 20.571 14.286 40 30.857 57.143 49.714zM1024 713.143c0-64-47.429-121.714-97.714-156.571-89.143-61.714-178.857-123.429-267.429-185.714-37.143-25.714-100-78.286-146.286-78.286h-1.143c-46.286 0-109.143 52.571-146.286 78.286-88.571 62.286-178.286 124-266.857 185.714-40.571 27.429-98.286 92-98.286 144 0 56 30.286 104 91.429 104h841.143c49.714 0 91.429-41.143 91.429-91.429z" />
<glyph unicode="&#xf1e0;" glyph-name="share-alt" horiz-adv-x="878" d="M694.857 365.714c101.143 0 182.857-81.714 182.857-182.857s-81.714-182.857-182.857-182.857-182.857 81.714-182.857 182.857c0 6.286 0.571 13.143 1.143 19.429l-205.714 102.857c-32.571-30.286-76.571-49.143-124.571-49.143-101.143 0-182.857 81.714-182.857 182.857s81.714 182.857 182.857 182.857c48 0 92-18.857 124.571-49.143l205.714 102.857c-0.571 6.286-1.143 13.143-1.143 19.429 0 101.143 81.714 182.857 182.857 182.857s182.857-81.714 182.857-182.857-81.714-182.857-182.857-182.857c-48 0-92 18.857-124.571 49.143l-205.714-102.857c0.571-6.286 1.143-13.143 1.143-19.429s-0.571-13.143-1.143-19.429l205.714-102.857c32.571 30.286 76.571 49.143 124.571 49.143z" />
<glyph unicode="&#xf274;" glyph-name="calendar-check-o" horiz-adv-x="951" d="M744.571 400l-292.571-292.571c-7.429-6.857-18.857-6.857-26.286 0l-164.571 164.571c-6.857 7.429-6.857 18.857 0 25.714l26.286 26.286c6.857 6.857 18.286 6.857 25.714 0l125.714-125.714 253.714 253.714c7.429 6.857 18.857 6.857 25.714 0l26.286-26.286c6.857-6.857 6.857-18.286 0-25.714zM73.143 0h804.571v585.143h-804.571v-585.143zM292.571 694.857v164.571c0 10.286-8 18.286-18.286 18.286h-36.571c-10.286 0-18.286-8-18.286-18.286v-164.571c0-10.286 8-18.286 18.286-18.286h36.571c10.286 0 18.286 8 18.286 18.286zM731.429 694.857v164.571c0 10.286-8 18.286-18.286 18.286h-36.571c-10.286 0-18.286-8-18.286-18.286v-164.571c0-10.286 8-18.286 18.286-18.286h36.571c10.286 0 18.286 8 18.286 18.286zM950.857 731.428v-731.429c0-40-33.143-73.143-73.143-73.143h-804.571c-40 0-73.143 33.143-73.143 73.143v731.429c0 40 33.143 73.143 73.143 73.143h73.143v54.857c0 50.286 41.143 91.429 91.429 91.429h36.571c50.286 0 91.429-41.143 91.429-91.429v-54.857h219.429v54.857c0 50.286 41.143 91.429 91.429 91.429h36.571c50.286 0 91.429-41.143 91.429-91.429v-54.857h73.143c40 0 73.143-33.143 73.143-73.143z" />
</font>
</defs>
</svg>
